HIERARCHY
ROOT SpineBase
{
  OFFSET 0.000000 0.000000 0.000000
  CHANNELS 6 Xposition Yposition Zposition Zrotation Xrotation Yrotation
  JOINT SpineMid
  {
    OFFSET 0.000000 31.308284 0.000000
    CHANNELS 3 Zrotation Xrotation Yrotation
    JOINT SpineShoulder
    {
      OFFSET -0.185532 23.215890 -0.777662
      CHANNELS 3 Zrotation Xrotation Yrotation
      JOINT Neck
      {
        OFFSET -0.143642 7.671451 -0.619704
        CHANNELS 3 Zrotation Xrotation Yrotation
        JOINT Head
        {
          OFFSET -1.256013 11.475523 0.826766
          CHANNELS 3 Zrotation Xrotation Yrotation
          End Site
          {
            OFFSET 0 0 0
          }
        }
      }
      JOINT ShoulderLeft
      {
        OFFSET -16.510963 -3.353872 5.679784
        CHANNELS 3 Zrotation Xrotation Yrotation
        JOINT ElbowLeft
        {
          OFFSET -3.321602 -28.960993 1.970391
          CHANNELS 3 Zrotation Xrotation Yrotation
          JOINT WristLeft
          {
            OFFSET -4.083895 -22.539062 -4.742579
            CHANNELS 3 Zrotation Xrotation Yrotation
            JOINT HandLeft
            {
              OFFSET -0.718982 -5.423853 -2.149235
              CHANNELS 3 Zrotation Xrotation Yrotation
              JOINT HandTipLeft
              {
                OFFSET -0.138734 -5.729517 -1.157580
                CHANNELS 3 Zrotation Xrotation Yrotation
                End Site
                {
                  OFFSET 0 0 0
                }
              }
              JOINT ThumbLeft
              {
                OFFSET 5.283790 2.076742 -0.438610
                CHANNELS 3 Zrotation Xrotation Yrotation
                End Site
                {
                  OFFSET 0 0 0
                }
              }
            }
          }
        }
      }
      JOINT ShoulderRight
      {
        OFFSET 14.434914 -2.965112 -8.636035
        CHANNELS 3 Zrotation Xrotation Yrotation
        JOINT ElbowRight
        {
          OFFSET 7.121429 -27.010513 -0.816104
          CHANNELS 3 Zrotation Xrotation Yrotation
          JOINT WristRight
          {
            OFFSET 0.315957 -23.015147 -7.051016
            CHANNELS 3 Zrotation Xrotation Yrotation
            JOINT HandRight
            {
              OFFSET -0.332622 -6.381366 -1.079847
              CHANNELS 3 Zrotation Xrotation Yrotation
              JOINT HandTipRight
              {
                OFFSET -0.414522 -7.111931 -0.840402
                CHANNELS 3 Zrotation Xrotation Yrotation
                End Site
                {
                  OFFSET 0 0 0
                }
              }
              JOINT ThumbRight
              {
                OFFSET 1.565435 -1.466612 -4.009973
                CHANNELS 3 Zrotation Xrotation Yrotation
                End Site
                {
                  OFFSET 0 0 0
                }
              }
            }
          }
        }
      }
    }
  }
  JOINT HipLeft
  {
    OFFSET -6.278813 0.681884 -1.262778
    CHANNELS 3 Zrotation Xrotation Yrotation
    JOINT KneeLeft
    {
      OFFSET -2.901947 -32.747411 2.689761
      CHANNELS 3 Zrotation Xrotation Yrotation
      JOINT AnkleLeft
      {
        OFFSET 2.330889 -35.677234 6.215124
        CHANNELS 3 Zrotation Xrotation Yrotation
        JOINT FootLeft
        {
          OFFSET -3.550672 -5.932827 -9.788558
          CHANNELS 3 Zrotation Xrotation Yrotation
          End Site
          {
            OFFSET 0 0 0
          }
        }
      }
    }
  }
  JOINT HipRight
  {
    OFFSET 4.603372 1.070526 -6.520287
    CHANNELS 3 Zrotation Xrotation Yrotation
    JOINT KneeRight
    {
      OFFSET 8.421573 -34.802101 -0.639077
      CHANNELS 3 Zrotation Xrotation Yrotation
      JOINT AnkleRight
      {
        OFFSET 4.746692 -35.450408 6.179571
        CHANNELS 3 Zrotation Xrotation Yrotation
        JOINT FootRight
        {
          OFFSET -1.574812 -8.404698 -7.427520
          CHANNELS 3 Zrotation Xrotation Yrotation
          End Site
          {
            OFFSET 0 0 0
          }
        }
      }
    }
  }
}
MOTION
Frames: 5
Frame Time: 0.033333
87.442997 62.513820 375.605888 32.801628 -13.059853 22.394260 -0.474299 0.417707 -17.557682 -0.765253 0.277548 1.321915 30.025595 17.997989 -19.730932 0.000000 0.000000 0.000000 -27.151078 17.634187 0.359906 -13.925920 6.216119 0.609457 -23.454365 38.046297 14.281806 -20.598274 -14.699783 -11.115815 0.000000 0.000000 0.000000 0.000000 0.000000 0.000000 -56.644506 26.749635 15.697483 -9.618930 -26.106786 -4.689838 -9.488843 2.766674 0.079116 10.519828 11.418639 -1.672458 0.000000 0.000000 0.000000 0.000000 0.000000 0.000000 -128.621149 34.046659 35.850544 122.404396 0.433054 31.588409 -40.793167 4.653814 4.168228 0.000000 0.000000 0.000000 -70.268831 62.767890 29.914998 82.267671 -59.018140 45.366684 -23.180441 18.352901 1.534468 0.000000 0.000000 0.000000
86.867822 64.106928 375.940079 32.276760 -13.247659 19.930033 -0.559582 0.362388 -15.102550 -0.887904 0.304118 1.291966 30.281366 18.489812 -19.833026 0.000000 0.000000 0.000000 -26.159398 19.548012 0.047060 -15.431042 5.606597 0.562985 -12.631245 7.595213 6.614176 -25.237946 13.386743 3.999034 0.000000 0.000000 0.000000 0.000000 0.000000 0.000000 -56.925273 25.966733 15.758393 -9.035075 -25.089955 -3.979288 -7.210785 3.141526 -0.637506 5.749596 11.146142 -0.412468 0.000000 0.000000 0.000000 0.000000 0.000000 0.000000 -128.146086 36.486196 38.391619 124.532574 -1.894759 38.197382 -44.872079 8.434804 8.033503 0.000000 0.000000 0.000000 -60.549329 60.337078 22.909378 66.808381 -60.247315 34.693975 -19.356909 17.995011 0.448967 0.000000 0.000000 0.000000
86.477295 65.927921 376.354273 32.135438 -13.643934 19.005396 -0.339179 0.253818 -14.100677 -1.052476 0.383958 1.282004 28.770610 19.193536 -19.578836 0.000000 0.000000 0.000000 -26.349549 22.188856 -0.155773 -15.613601 3.857300 0.350751 -1.098346 -15.196739 3.321665 -40.514843 24.154828 17.948296 0.000000 0.000000 0.000000 0.000000 0.000000 0.000000 -58.308334 24.710782 15.857804 -7.374238 -24.040298 -2.987233 -5.403960 4.402425 -0.859407 1.732847 11.440364 0.739078 0.000000 0.000000 0.000000 0.000000 0.000000 0.000000 -124.616710 40.012348 39.483677 120.396440 -7.056717 42.302840 -43.272442 14.634663 7.281012 0.000000 0.000000 0.000000 -51.572212 57.783661 15.832227 45.355702 -56.909277 18.361544 -17.608017 19.929260 2.346998 0.000000 0.000000 0.000000
85.706988 68.066598 376.773379 31.824825 -14.085945 21.015894 -0.352212 0.149529 -16.007256 -1.125328 0.438213 1.256232 28.805907 19.673813 -19.789709 0.000000 0.000000 0.000000 -26.372788 23.438740 -0.070110 -15.863077 3.181975 0.395583 2.264665 -5.658998 2.392425 -41.915812 5.442464 7.699278 0.000000 0.000000 0.000000 0.000000 0.000000 0.000000 -58.194960 25.236460 16.372481 -7.152501 -23.742339 -2.940957 -4.585108 4.654961 -1.082787 -1.546249 12.587510 1.892911 0.000000 0.000000 0.000000 0.000000 0.000000 0.000000 -116.495739 47.085742 38.865978 110.930190 -12.297454 43.831328 -44.982800 23.423109 9.006142 0.000000 0.000000 0.000000 -40.163688 56.510037 5.862230 30.078523 -51.044446 8.060710 -13.444586 20.221457 0.518848 0.000000 0.000000 0.000000
84.981966 70.481019 377.052911 32.033018 -14.534253 28.841180 -0.539243 0.118500 -23.611521 -1.188920 0.583371 1.223798 27.659825 20.168096 -19.625673 0.000000 0.000000 0.000000 -26.699374 25.407050 -0.069565 -15.799773 0.432094 0.362894 8.248338 5.186092 -0.092328 -49.022506 -9.920672 -0.660853 0.000000 0.000000 0.000000 0.000000 0.000000 0.000000 -59.587461 25.910473 17.537253 -4.907342 -24.016832 -3.068758 -5.758980 4.266857 -0.763763 -2.758299 13.403081 2.457833 0.000000 0.000000 0.000000 0.000000 0.000000 0.000000 -105.386575 60.355765 36.191035 94.824962 -19.555180 42.046945 -46.042735 34.777659 11.866379 0.000000 0.000000 0.000000 -24.966067 56.121838 -10.974793 21.214205 -43.727368 3.018414 -8.123587 19.495347 -3.535387 0.000000 0.000000 0.000000
